# xmcd CD database file
#
# Track frame offsets:
#	225
#	20407
#	38398
#	64330
#	87336
#	105931
#	128503
#	152542
#	168765
#	187608
#	204968
#
# Disc length: 3219 seconds
#
# Revision: 0
# Processed by: cddbd v1.5.2PL0 Copyright (c) Steve Scherf et al.
# Submitted via: CDex 1.51
#
DISCID=700c900b
DTITLE=Rob Bruce - The Somnambulist
DYEAR=2010
DGENRE=Country
TTITLE0=Yage
TTITLE1=Indian Summer
TTITLE2=Hard Row To Hoe
TTITLE3=Music
TTITLE4=Murdering Creek Road
TTITLE5=Spirit Voices
TTITLE6=Let Her
TTITLE7=Stone
TTITLE8=Sailors' Lament
TTITLE9=I Sing Of Myself
TTITLE10=Old Man Featherfoot
EXTD=YEAR: 2010
EXTT0=
EXTT1=
EXTT2=
EXTT3=
EXTT4=
EXTT5=
EXTT6=
EXTT7=
EXTT8=
EXTT9=
EXTT10=
PLAYORDER=
